<?xml version="1.0" standalone="no"?>
<!DOCTYPE svg PUBLIC "-//W3C//DTD SVG 20010904//EN"
 "http://www.w3.org/TR/2001/REC-SVG-20010904/DTD/svg10.dtd">
<svg version="1.0" xmlns="http://www.w3.org/2000/svg"
 width="750.000000pt" height="750.000000pt" viewBox="0 0 750.000000 750.000000"
 preserveAspectRatio="xMidYMid meet">
<metadata>
Created by potrace 1.11, written by Peter Selinger 2001-2013
</metadata>
<g transform="translate(0.000000,750.000000) scale(0.100000,-0.100000)"
fill="#000000" stroke="none">
<path d="M3490 7197 c-3 -2 -41 -7 -85 -11 -44 -4 -107 -11 -140 -16 -33 -5
-78 -12 -100 -15 -22 -4 -48 -8 -57 -11 -9 -3 -27 -7 -40 -9 -167 -31 -478
-120 -573 -165 -11 -5 -54 -23 -95 -39 -99 -41 -302 -143 -420 -213 -77 -46
-302 -199 -345 -235 -5 -5 -32 -26 -60 -48 -83 -66 -143 -122 -286 -265 -435
-436 -738 -973 -889 -1579 -24 -95 -50 -225 -75 -378 -14 -88 -20 -216 -20
-463 0 -260 3 -325 19 -445 3 -22 8 -53 10 -70 21 -153 79 -397 139 -577 l35
-108 -189 0 -189 0 0 -435 0 -435 23 -1 c12 0 205 -1 428 -2 l407 -2 83 -105
c156 -198 445 -470 664 -626 256 -183 519 -324 800 -429 214 -80 553 -167 745
-190 34 -4 156 -17 200 -21 111 -9 529 -3 635 11 22 2 60 7 85 10 25 3 83 12
130 21 47 9 96 18 110 21 202 37 486 126 663 207 32 14 60 26 63 26 13 0 232
115 335 176 244 145 457 308 660 505 102 99 219 229 302 335 l47 61 418 1
c229 0 423 1 430 1 9 1 12 95 12 436 l0 435 -191 0 c-178 0 -191 1 -184 18 28
67 91 276 110 362 52 233 71 349 90 570 5 60 5 419 0 495 -25 362 -103 698
-242 1040 -235 577 -605 1066 -1093 1446 -78 61 -323 229 -333 229 -3 0 -34
17 -68 39 -340 205 -850 378 -1261 426 -25 3 -57 8 -69 11 -29 7 -632 17 -639
11z m499 -271 c588 -35 1221 -279 1708 -659 234 -182 463 -418 640 -659 97
-133 272 -441 335 -593 10 -22 25 -58 34 -80 39 -93 121 -350 139 -433 2 -9
11 -51 20 -92 9 -41 18 -91 21 -110 3 -19 7 -42 9 -50 2 -8 7 -42 11 -75 3
-33 8 -73 10 -90 22 -158 22 -526 -2 -705 -35 -273 -115 -594 -200 -796 l-14
-34 -91 0 c-83 0 -90 2 -84 18 100 238 187 548 210 747 3 28 8 60 10 71 9 40
17 218 18 354 0 126 -11 359 -18 370 -1 3 -6 32 -9 65 -4 33 -9 67 -11 75 -2
8 -6 31 -9 50 -9 58 -16 93 -28 135 -5 22 -11 47 -13 56 -6 29 -46 162 -72
239 -66 192 -181 437 -281 595 -57 90 -156 233 -209 300 -153 196 -406 432
-655 611 -105 76 -398 239 -518 289 -168 70 -480 167 -575 180 -11 2 -47 8
-80 14 -33 6 -78 13 -100 16 -22 4 -47 8 -55 10 -64 17 -464 24 -615 12 -154
-13 -327 -38 -425 -62 -30 -8 -67 -16 -81 -19 -35 -6 -173 -49 -294 -93 -211
-75 -429 -186 -630 -319 -201 -133 -447 -348 -616 -539 -184 -207 -385 -533
-503 -813 -33 -77 -94 -246 -101 -276 -2 -11 -18 -70 -34 -130 -17 -60 -33
-128 -36 -150 -4 -23 -10 -59 -15 -81 -5 -22 -12 -63 -15 -91 -3 -28 -7 -59
-9 -70 -18 -91 -25 -498 -12 -634 29 -296 103 -604 205 -850 17 -41 31 -76 31
-77 0 -2 -42 -3 -93 -3 l-93 0 -57 168 c-63 187 -110 371 -131 517 -2 17 -7
49 -11 73 -12 77 -14 96 -21 217 -40 664 82 1198 413 1810 42 77 202 311 270
396 129 159 293 329 408 424 33 28 62 53 65 56 3 3 50 39 105 81 375 283 823
487 1270 577 101 20 129 24 220 37 28 3 59 8 70 10 10 2 76 7 145 10 69 4 126
7 127 8 4 3 219 -2 322 -8z m-2333 -5346 c282 -268 603 -479 949 -622 104 -43
339 -120 406 -133 11 -2 29 -7 39 -10 19 -6 46 -12 95 -20 17 -3 37 -8 45 -10
91 -24 362 -48 555 -49 122 0 321 11 355 19 8 2 40 7 70 10 82 9 335 61 415
85 84 26 183 59 210 71 11 5 45 18 75 29 70 26 100 40 231 105 280 139 514
305 754 536 l90 87 107 -1 c95 0 106 -2 98 -16 -14 -26 -219 -231 -314 -314
-274 -238 -629 -452 -946 -570 -52 -19 -104 -38 -115 -43 -11 -4 -24 -8 -30
-10 -5 -1 -30 -9 -55 -17 -43 -15 -129 -39 -140 -39 -3 0 -25 -7 -50 -14 -25
-7 -61 -16 -80 -19 -19 -3 -46 -8 -60 -10 -115 -23 -257 -43 -375 -52 -157
-12 -485 -5 -585 11 -14 3 -47 7 -75 10 -27 3 -63 8 -80 11 -37 6 -92 16 -125
21 -71 13 -307 77 -395 108 -382 133 -756 347 -1056 606 -88 75 -329 321 -324
330 2 3 50 7 106 7 l102 1 103 -98z"/>
</g>
</svg>
